<svg width="73" height="87" viewBox="0 0 73 87" fill="none" xmlns="http://www.w3.org/2000/svg">
<path d="M1 7H67V17C67 20.3137 64.3137 23 61 23H7C3.68629 23 1 20.3137 1 17V7Z" fill="white" stroke="#333333" stroke-width="0.5"/>
<path d="M1 76.5H67V84.5C67 85.6046 66.1046 86.5 65 86.5H3C1.89543 86.5 1 85.6046 1 84.5V76.5Z" fill="#EBB033" stroke="#333333" stroke-width="0.5"/>
<path d="M8 23H60L62 73H6L8 23Z" fill="white" stroke="#333333" stroke-width="0.5"/>
<path d="M26 23H42V27C42 29.2091 40.2091 31 38 31H30C27.7909 31 26 29.2091 26 27V23Z" fill="white" stroke="#333333" stroke-width="0.5"/>
<path d="M1 77H67V74C67 73.4477 66.5523 73 66 73H2C1.44771 73 1 73.4477 1 74V77Z" fill="#FAFAFA" stroke="#333333" stroke-width="0.5"/>
<path d="M1 3C1 1.89543 1.89543 1 3 1H65C66.1046 1 67 1.89543 67 3V7H1V3Z" fill="#EBB033" stroke="#333333" stroke-width="0.5"/>
<path d="M31 31H33V36C33 36.5523 32.5523 37 32 37C31.4477 37 31 36.5523 31 36V31Z" fill="white" stroke="#333333" stroke-width="0.5"/>
<path d="M35 31H37V34C37 34.5523 36.5523 35 36 35C35.4477 35 35 34.5523 35 34V31Z" fill="white" stroke="#333333" stroke-width="0.5"/>
<circle cx="34" cy="15" r="6" fill="white" stroke="#333333" stroke-width="0.5"/>
<circle cx="18" cy="15" r="4" fill="#F5F5F5" stroke="#333333" stroke-width="0.5"/>
<circle cx="50" cy="15" r="4" fill="#F5F5F5" stroke="#333333" stroke-width="0.5"/>
<path d="M50.7773 42.0008C44.7773 41.9997 21.7773 41.9998 15.7773 42.0008C15.7773 59.0001 20.7773 69 23.7773 73.0008C29.7773 73.0008 36.2764 73.0008 42.7773 73.0008C45.7773 69 50.7773 58.0001 50.7773 42.0008Z" fill="white" stroke="#333333" stroke-width="0.5" stroke-linejoin="round"/>
<path d="M20.3855 67C21.5657 69.6852 22.7813 71.6733 23.7768 73.0008C29.7768 73.0008 36.2759 73.0008 42.7768 73.0008C43.7459 71.7084 44.9237 69.6857 46.0742 67C40.7773 67 32.7773 67.001 20.3855 67Z" fill="#EBB033" stroke="#333333" stroke-width="0.5" stroke-linejoin="round"/>
<path fill-rule="evenodd" clip-rule="evenodd" d="M20.7773 45H11.6107C11.1283 45 10.7164 45.3405 10.6412 45.817C10.2657 48.1946 9.33991 55.1236 10.7781 58C12.5281 61.5 23.1777 63.5 23.1777 63.5C23.1777 63.5 21.7781 59 21.2781 54.5C20.6132 48.516 20.7773 45 20.7773 45ZM18.5004 47.7H13.4322C12.939 47.7 12.5211 48.0576 12.4633 48.5474C12.2522 50.3363 11.9006 54.4827 12.9004 56.3C14.1937 58.651 20.0004 60.2 20.0004 60.2C20.0004 60.2 19.3699 57.1773 19.0004 54.1547C18.509 50.1352 18.5004 47.7 18.5004 47.7Z" fill="#EBB033"/>
<path d="M20.7773 45V44.75H21.0393L21.0271 45.0117L20.7773 45ZM10.6412 45.817L10.3942 45.778V45.778L10.6412 45.817ZM23.1777 63.5L23.4165 63.4258L23.5398 63.8224L23.1316 63.7457L23.1777 63.5ZM21.2781 54.5L21.5266 54.4724L21.2781 54.5ZM18.5004 47.7V47.45H18.7495L18.7504 47.6991L18.5004 47.7ZM12.4633 48.5474L12.215 48.5181V48.5181L12.4633 48.5474ZM12.9004 56.3L13.1194 56.1795L12.9004 56.3ZM20.0004 60.2L20.2451 60.149L20.3279 60.5461L19.9359 60.4416L20.0004 60.2ZM19.0004 54.1547L19.2485 54.1244L19.0004 54.1547ZM11.6107 44.75H20.7773V45.25H11.6107V44.75ZM10.3942 45.778C10.4893 45.1758 11.0096 44.75 11.6107 44.75V45.25C11.2471 45.25 10.9435 45.5052 10.8881 45.856L10.3942 45.778ZM10.5545 58.1118C10.175 57.3528 9.9592 56.3452 9.84842 55.2423C9.73725 54.1352 9.73013 52.9125 9.77971 51.7111C9.87888 49.3083 10.2058 46.971 10.3942 45.778L10.8881 45.856C10.701 47.0407 10.3773 49.3566 10.2793 51.7318C10.2303 52.9194 10.2379 54.1168 10.3459 55.1923C10.4543 56.2718 10.6621 57.209 11.0017 57.8882L10.5545 58.1118ZM23.1777 63.5C23.1316 63.7457 23.1315 63.7457 23.1314 63.7457C23.1313 63.7457 23.1312 63.7456 23.131 63.7456C23.1306 63.7455 23.1301 63.7454 23.1294 63.7453C23.128 63.745 23.126 63.7446 23.1233 63.7441C23.118 63.7431 23.1101 63.7416 23.0999 63.7396C23.0793 63.7357 23.0489 63.7298 23.0092 63.7219C22.93 63.7063 22.8138 63.6829 22.6656 63.6519C22.3692 63.59 21.9442 63.4978 21.4289 63.3761C20.3989 63.1329 19.0059 62.7718 17.5568 62.3002C16.1092 61.8292 14.5977 61.2455 13.334 60.5553C12.08 59.8704 11.0279 59.0585 10.5545 58.1118L11.0017 57.8882C11.4034 58.6915 12.3387 59.4421 13.5737 60.1165C14.799 60.7858 16.278 61.3583 17.7115 61.8248C19.1436 62.2907 20.5224 62.6483 21.5438 62.8895C22.0543 63.01 22.475 63.1014 22.7678 63.1625C22.9142 63.1931 23.0286 63.2161 23.1062 63.2314C23.145 63.2391 23.1746 63.2449 23.1944 63.2487C23.2043 63.2506 23.2118 63.252 23.2167 63.2529C23.2192 63.2534 23.221 63.2538 23.2222 63.254C23.2228 63.2541 23.2233 63.2542 23.2235 63.2542C23.2237 63.2543 23.2238 63.2543 23.2238 63.2543C23.2239 63.2543 23.2239 63.2543 23.1777 63.5ZM21.5266 54.4724C21.775 56.7077 22.2472 58.9462 22.6583 60.6281C22.8637 61.4686 23.0535 62.1688 23.1918 62.6586C23.261 62.9035 23.3173 63.0957 23.3562 63.2265C23.3757 63.2919 23.3908 63.342 23.401 63.3755C23.4062 63.3923 23.41 63.405 23.4126 63.4134C23.4139 63.4176 23.4149 63.4208 23.4155 63.4228C23.4159 63.4238 23.4161 63.4246 23.4163 63.4251C23.4163 63.4253 23.4164 63.4255 23.4164 63.4256C23.4164 63.4257 23.4164 63.4257 23.4165 63.4257C23.4165 63.4258 23.4165 63.4258 23.1777 63.5C22.939 63.5742 22.939 63.5742 22.939 63.5742C22.939 63.5741 22.9389 63.574 22.9389 63.574C22.9389 63.5738 22.9388 63.5736 22.9387 63.5733C22.9385 63.5727 22.9382 63.5718 22.9379 63.5706C22.9372 63.5683 22.9361 63.565 22.9348 63.5605C22.932 63.5516 22.928 63.5385 22.9227 63.5212C22.9122 63.4867 22.8968 63.4356 22.877 63.3692C22.8375 63.2363 22.7805 63.0418 22.7106 62.7945C22.571 62.3 22.3796 61.5939 22.1726 60.7469C21.7588 59.0538 21.2813 56.7923 21.0297 54.5276L21.5266 54.4724ZM20.7773 45C21.0271 45.0117 21.0271 45.0116 21.0271 45.0116C21.0271 45.0116 21.0271 45.0117 21.0271 45.0117C21.0271 45.0117 21.0271 45.0119 21.0271 45.012C21.027 45.0124 21.027 45.0129 21.027 45.0137C21.0269 45.0152 21.0268 45.0176 21.0267 45.0209C21.0264 45.0274 21.026 45.0372 21.0255 45.0505C21.0245 45.077 21.0231 45.117 21.0215 45.1702C21.0183 45.2765 21.0146 45.4358 21.0121 45.6458C21.0071 46.0659 21.0074 46.6893 21.0283 47.4995C21.0702 49.12 21.195 51.488 21.5266 54.4724L21.0297 54.5276C20.6964 51.5281 20.5707 49.146 20.5285 47.5125C20.5074 46.6957 20.5071 46.0661 20.5121 45.6399C20.5146 45.4269 20.5185 45.2647 20.5217 45.1554C20.5233 45.1007 20.5248 45.0593 20.5258 45.0314C20.5264 45.0174 20.5268 45.0069 20.5271 44.9997C20.5273 44.9961 20.5274 44.9933 20.5275 44.9914C20.5275 44.9905 20.5276 44.9898 20.5276 44.9892C20.5276 44.989 20.5276 44.9888 20.5276 44.9886C20.5276 44.9886 20.5276 44.9885 20.5276 44.9884C20.5276 44.9884 20.5276 44.9883 20.7773 45ZM13.4322 47.45H18.5004V47.95H13.4322V47.45ZM12.215 48.5181C12.2883 47.8975 12.8174 47.45 13.4322 47.45V47.95C13.0607 47.95 12.7539 48.2178 12.7116 48.5767L12.215 48.5181ZM12.6813 56.4205C12.4113 55.9297 12.2399 55.2972 12.1336 54.6119C12.0267 53.9236 11.9831 53.166 11.9777 52.4149C11.967 50.9127 12.1089 49.4173 12.215 48.5181L12.7116 48.5767C12.6066 49.4664 12.4672 50.9387 12.4777 52.4113C12.483 53.1475 12.5258 53.879 12.6276 54.5352C12.7299 55.1944 12.8896 55.7617 13.1194 56.1795L12.6813 56.4205ZM20.0004 60.2C19.9359 60.4416 19.9359 60.4415 19.9358 60.4415C19.9357 60.4415 19.9356 60.4415 19.9355 60.4414C19.9353 60.4414 19.935 60.4413 19.9346 60.4412C19.9338 60.441 19.9326 60.4407 19.9311 60.4403C19.9281 60.4394 19.9237 60.4383 19.918 60.4367C19.9065 60.4336 19.8897 60.429 19.8678 60.4229C19.8241 60.4107 19.7601 60.3927 19.6785 60.3689C19.5152 60.3214 19.281 60.251 18.9962 60.1592C18.4269 59.9757 17.6534 59.7061 16.8381 59.3619C16.0239 59.0182 15.1619 58.5974 14.4184 58.1103C13.6795 57.6262 13.0339 57.0613 12.6813 56.4205L13.1194 56.1795C13.4136 56.7142 13.9788 57.2245 14.6924 57.6921C15.4014 58.1566 16.2336 58.5639 17.0326 58.9013C17.8307 59.2382 18.5897 59.5028 19.1496 59.6833C19.4293 59.7734 19.6589 59.8424 19.8182 59.8888C19.8978 59.912 19.9599 59.9295 20.0018 59.9412C20.0228 59.947 20.0388 59.9514 20.0494 59.9543C20.0547 59.9557 20.0586 59.9568 20.0612 59.9575C20.0625 59.9578 20.0635 59.9581 20.0641 59.9582C20.0644 59.9583 20.0646 59.9584 20.0647 59.9584C20.0648 59.9584 20.0648 59.9584 20.0648 59.9585C20.0648 59.9585 20.0648 59.9584 20.0004 60.2ZM19.2485 54.1244C19.4325 55.6293 19.6816 57.1356 19.885 58.2666C19.9866 58.8318 20.0767 59.3028 20.1414 59.6323C20.1737 59.7971 20.1997 59.9264 20.2176 60.0145C20.2265 60.0586 20.2334 60.0923 20.2381 60.1149C20.2404 60.1262 20.2422 60.1348 20.2433 60.1405C20.2439 60.1434 20.2444 60.1455 20.2447 60.1469C20.2448 60.1476 20.2449 60.1481 20.245 60.1485C20.245 60.1487 20.2451 60.1488 20.2451 60.1489C20.2451 60.1489 20.2451 60.1489 20.2451 60.1489C20.2451 60.149 20.2451 60.149 20.0004 60.2C19.7556 60.251 19.7556 60.251 19.7556 60.251C19.7556 60.251 19.7556 60.2509 19.7556 60.2509C19.7556 60.2508 19.7555 60.2506 19.7555 60.2504C19.7554 60.25 19.7553 60.2494 19.7551 60.2487C19.7548 60.2472 19.7544 60.2449 19.7537 60.242C19.7525 60.236 19.7507 60.2273 19.7483 60.2157C19.7436 60.1926 19.7366 60.1584 19.7275 60.1139C19.7095 60.0249 19.6833 59.8945 19.6508 59.7286C19.5857 59.3969 19.4951 58.9233 19.3929 58.3551C19.1886 57.219 18.9378 55.7027 18.7522 54.185L19.2485 54.1244ZM18.5004 47.7C18.7504 47.6991 18.7504 47.6991 18.7504 47.6991C18.7504 47.6991 18.7504 47.6991 18.7504 47.6991C18.7504 47.6992 18.7504 47.6993 18.7504 47.6994C18.7504 47.6996 18.7504 47.7 18.7504 47.7005C18.7504 47.7016 18.7504 47.7032 18.7504 47.7055C18.7504 47.7099 18.7505 47.7168 18.7506 47.7259C18.7507 47.7442 18.7511 47.7718 18.7517 47.8085C18.7528 47.8819 18.7551 47.9916 18.7593 48.136C18.7677 48.4249 18.784 48.8526 18.8157 49.4058C18.879 50.5122 19.0035 52.1205 19.2485 54.1244L18.7522 54.185C18.5058 52.1695 18.3804 50.5504 18.3165 49.4343C18.2846 48.8763 18.268 48.4439 18.2595 48.1506C18.2552 48.0039 18.2529 47.892 18.2517 47.8165C18.2511 47.7787 18.2508 47.7501 18.2506 47.7308C18.2505 47.7211 18.2504 47.7137 18.2504 47.7088C18.2504 47.7063 18.2504 47.7044 18.2504 47.703C18.2504 47.7024 18.2504 47.7019 18.2504 47.7015C18.2504 47.7013 18.2504 47.7012 18.2504 47.7011C18.2504 47.701 18.2504 47.701 18.2504 47.701C18.2504 47.7009 18.2504 47.7009 18.5004 47.7Z" fill="#333333"/>
<path d="M36.1211 11.4648L37.5353 12.8791L34.5655 15.5661L31.8785 18.5359L30.4642 17.1217L33.4341 14.4347L36.1211 11.4648Z" fill="#EBB033"/>
<path d="M64.6181 45.6896C64.7233 46.2318 65.2481 46.586 65.7903 46.4808C66.3325 46.3755 66.6867 45.8507 66.5814 45.3085L64.6181 45.6896ZM55.3672 25.499L54.3672 25.499L54.3672 26.1559L54.97 26.4168L55.3672 25.499ZM62.2998 28.4991L63.2815 28.3085L63.181 27.7908L62.697 27.5814L62.2998 28.4991ZM54.3671 22.9992L54.3672 25.499L56.3672 25.499L56.3671 22.9991L54.3671 22.9992ZM54.97 26.4168L61.9026 29.4169L62.697 27.5814L55.7643 24.5813L54.97 26.4168ZM61.3181 28.6897L64.6181 45.6896L66.5814 45.3085L63.2815 28.3085L61.3181 28.6897Z" fill="#EBB033"/>
</svg>
