<svg width="106" height="106" viewBox="0 0 106 106" fill="none" xmlns="http://www.w3.org/2000/svg">
<path d="M43.6814 81.443C57.1109 81.443 67.9976 70.5562 67.9976 57.1267C67.9976 43.6973 57.1109 32.8105 43.6814 32.8105C30.252 32.8105 19.3652 43.6973 19.3652 57.1267C19.3652 70.5562 30.252 81.443 43.6814 81.443Z" fill="white" stroke="#333333" stroke-width="0.5"/>
<path d="M21.5215 47.0998C22.1924 48.4 23.2328 49.6011 24.3725 50.5196C24.9829 51.012 25.6671 51.4561 26.0631 52.1327C26.3513 52.626 26.4628 53.2053 26.7378 53.707C27.4371 54.9818 28.9821 55.4619 30.3126 56.0487C31.2803 56.4749 32.1988 57.0116 33.0455 57.6448C33.2789 57.8187 33.5114 58.0067 33.656 58.26C34.2825 59.3609 32.8924 60.5648 32.797 61.8282C32.7356 62.6447 33.2373 63.4016 33.8298 63.9667C34.4223 64.5318 35.1254 64.9806 35.6603 65.6006C36.592 66.6816 36.9057 68.1596 37.0352 69.5808C37.1647 71.0021 37.2611 74.18 37.6617 75.5502C38.0624 76.9195 40.405 79.1875 40.2491 76.9063C40.0043 75.6778 39.8286 74.2112 40.7386 73.3513C41.23 72.8873 41.933 72.7238 42.4868 72.3364C44.0545 71.2392 43.9676 68.7936 45.299 67.4196C45.644 67.0643 46.073 66.7941 46.3914 66.4151C47.0321 65.6544 47.1323 64.5904 47.2032 63.5981C47.2419 63.0633 47.2741 62.4963 47.0208 62.0238C46.296 60.6697 43.9751 61.1384 43.0793 59.891C42.7334 59.41 42.689 58.7787 42.4367 58.2429C42.0247 57.3669 41.0967 56.8387 40.1621 56.5855C39.2276 56.3322 38.2476 56.2991 37.2989 56.1045C35.9816 55.8333 34.7484 55.254 33.5634 54.619C32.3339 53.9603 30.9826 52.9586 31.0488 51.5657C31.0686 51.1471 31.2387 50.7209 31.5713 50.4658C32.0712 50.0802 32.7715 50.1643 33.4037 50.1851C36.0855 50.2711 38.7532 48.7072 39.9883 46.3258C40.2755 45.7711 40.5127 45.1522 41.0145 44.7817C41.3207 44.5559 41.6949 44.4481 42.053 44.3215C43.0406 43.9728 43.9685 43.4559 44.785 42.7992C44.9447 42.6706 45.1053 42.5289 45.1809 42.3389C45.2783 42.0923 45.214 41.8117 45.1119 41.5669C44.6234 40.4046 43.2173 39.7147 41.9992 40.0417C41.1827 40.2609 40.5165 40.8563 39.7171 41.1322C38.9185 41.4081 37.794 41.1606 37.6343 40.3309C37.5918 40.1107 37.6258 39.8839 37.6712 39.6647C37.8469 38.8047 38.1843 37.9788 38.6596 37.2417C36.3766 36.3402 33.1693 36.1418 30.7464 36.5377L30.7454 36.5358C28.7581 37.787 26.9646 39.3179 25.4205 41.0727C23.8395 42.8653 22.5213 44.8942 21.5215 47.0998Z" fill="#EBB033" stroke="#333333" stroke-width="0.5"/>
<path d="M61.4179 73.7565C59.9948 71.5292 58.6388 69.4483 58.6907 66.8052C58.7285 64.9049 59.5658 63.0442 59.3172 61.1599C59.2785 60.866 59.2095 60.5674 59.0366 60.3264C58.8637 60.0864 58.6019 59.9267 58.342 59.784C57.0049 59.0517 55.509 58.6122 53.9885 58.5036C53.3261 58.4563 52.6381 58.4667 52.0296 58.2021C50.8748 57.7003 50.3296 56.3528 50.2001 55.0998C50.1037 54.1633 50.1916 53.1607 50.7274 52.3858C51.2878 51.5759 52.2658 51.1346 53.242 51.0033C54.2181 50.8719 55.2075 51.0137 56.1828 51.1554C57.0673 51.2839 57.9508 51.4115 58.8353 51.54C60.0751 51.7196 61.4812 51.8566 62.447 51.059C63.1359 50.4901 63.4298 49.4875 63.1576 48.637C62.8855 47.7866 62.0643 47.1402 61.1732 47.0769C60.4654 47.0258 59.7822 47.3084 59.1207 47.5645C57.724 48.105 56.2905 48.5501 54.8333 48.8969C54.5082 48.9744 54.1529 49.0443 53.8496 48.9045C53.43 48.7107 53.2751 48.2042 53.1654 47.7544C52.9916 47.0391 52.8205 46.268 53.0936 45.5838C53.4933 44.5821 54.65 44.1701 55.5893 43.6409C56.5286 43.1117 57.4226 41.9759 56.8754 41.046C56.6959 40.7408 56.3906 40.5329 56.1535 40.2692C55.3172 39.3413 56.2952 37.6753 57.3517 37.0081L57.2799 36.959C63.7483 41.3286 68.0007 48.7287 68.0007 57.122C67.9978 63.5583 65.4993 69.4086 61.4179 73.7565Z" fill="#EBB033" stroke="#333333" stroke-width="0.5"/>
<path d="M69.5867 36.9355C72.4755 29.6356 67.1808 20.7566 61.5497 18.1021C52.9948 14.824 45.4076 19.0584 38.5801 23.8608C41.7089 24.235 44.3605 27.8089 46.2476 30.9349C47.8409 33.5752 49.6477 36.5689 52.6924 38.5373C58.2517 41.9524 64.2344 40.843 69.5867 36.9355Z" fill="#EBB033" stroke="#333333" stroke-width="0.5"/>
<path d="M74.8286 46.5662C73.0331 42.0284 76.3235 36.5097 79.8247 34.8588C85.143 32.8215 89.8585 35.4532 94.1024 38.4384C92.1576 38.6709 90.5096 40.8925 89.3359 42.8363C88.3456 44.4778 87.2229 46.3384 85.3292 47.5622C81.8744 49.6846 78.1559 48.9948 74.8286 46.5662Z" fill="#EBB033" stroke="#333333" stroke-width="0.5"/>
<path d="M27 28.3398C16.8491 34.0957 10 44.9987 10 57.5013C10 76.0029 24.9985 91.0013 43.5 91.0013C62.0015 91.0013 77 76.0029 77 57.5013C77 45.6249 70.8198 35.1919 61.5 29.243" stroke="#EBB033" stroke-width="0.5" stroke-linecap="round"/>
<path d="M82.1445 41.2031C82.1445 41.2031 80.2869 41.2031 78.5 42.5C76.7131 43.7969 75.1445 46.2031 75.1445 46.2031" stroke="#333333" stroke-width="0.5" stroke-linecap="round"/>
<path d="M69.5 36.5C67.3333 32.8333 58.5 26 51.5 25" stroke="black" stroke-width="0.5"/>
</svg>
