<svg width="125" height="76" viewBox="0 0 125 76" fill="none" xmlns="http://www.w3.org/2000/svg">
<path d="M51.3235 42.0629C51.3235 53.25 57.5477 62.9834 66.7221 67.989C75.7046 67.989 85.3288 67.989 94.9529 67.989C104.127 62.9834 110.352 53.25 110.352 42.0629C110.352 25.7627 97.1377 12.5488 80.8375 12.5488C64.5374 12.5488 51.3235 25.7627 51.3235 42.0629Z" fill="white" stroke="#333333" stroke-width="0.5"/>
<path d="M103.75 23.4562C98.3384 16.8008 90.0852 12.5488 80.8387 12.5488C71.5923 12.5488 63.339 16.8008 57.9275 23.4562C75.7056 23.4562 87.2546 23.4562 103.75 23.4562Z" fill="white" stroke="#333333" stroke-width="0.5"/>
<path d="M85.9707 9.98249C85.9707 7.14768 83.6726 4.84961 80.8378 4.84961C78.003 4.84961 75.7049 7.14768 75.7049 9.98248V12.5489H85.9707V9.98249Z" fill="#EBB033" stroke="#333333" stroke-width="0.5"/>
<path d="M33.9997 29.2315L40.4158 24.7402L53.248 31.7979C50.04 39.4973 50.6816 47.8382 54.5312 55.5375L33.9997 29.2315Z" fill="#EBB033" stroke="#333333" stroke-width="0.5" stroke-linejoin="round"/>
<path fill-rule="evenodd" clip-rule="evenodd" d="M105.221 25.3814C108.001 22.815 115.101 19.222 121.261 25.3814C128.96 33.0807 123.186 54.2539 106.504 56.8203C110.353 49.121 111.123 43.3465 109.84 36.9304C108.61 30.779 106.475 27.3798 105.359 25.602C105.311 25.5255 105.265 25.452 105.221 25.3814ZM108.427 26.0231C110.634 24.038 114.447 22.5426 119.336 27.3067C125.446 33.2619 121.26 47.8382 110.993 52.9717C114.048 47.0165 113.296 40.6103 112.277 35.6476C111.259 30.685 109.276 27.3465 108.427 26.0231Z" fill="#EBB033"/>
<path d="M121.261 25.3814L121.084 25.5582L121.261 25.3814ZM105.221 25.3814L105.009 25.5139C104.945 25.412 104.963 25.2792 105.051 25.1977L105.221 25.3814ZM106.504 56.8203L106.542 57.0674C106.45 57.0816 106.357 57.0431 106.302 56.9676C106.247 56.892 106.238 56.7921 106.28 56.7085L106.504 56.8203ZM109.84 36.9304L110.085 36.8814L109.84 36.9304ZM105.359 25.602L105.147 25.735V25.735L105.359 25.602ZM119.336 27.3067L119.161 27.4858L119.336 27.3067ZM108.427 26.0231L108.217 26.1581C108.151 26.055 108.169 25.9192 108.26 25.8373L108.427 26.0231ZM110.993 52.9717L111.105 53.1953C111.008 53.2436 110.891 53.2243 110.815 53.1475C110.739 53.0707 110.721 52.9537 110.77 52.8575L110.993 52.9717ZM112.277 35.6476L112.032 35.6979L112.277 35.6476ZM121.084 25.5582C118.065 22.5387 114.831 21.9185 112.012 22.3563C109.179 22.7962 106.752 24.3078 105.39 25.5651L105.051 25.1977C106.469 23.8886 108.983 22.3205 111.935 21.8622C114.901 21.4017 118.298 22.0647 121.438 25.2046L121.084 25.5582ZM106.466 56.5732C114.7 55.3065 120.251 49.4478 122.792 42.9348C125.341 36.4038 124.834 29.3079 121.084 25.5582L121.438 25.2046C125.387 29.1543 125.842 36.4946 123.258 43.1166C120.667 49.7566 114.99 55.7677 106.542 57.0674L106.466 56.5732ZM110.085 36.8814C111.381 43.3605 110.598 49.1914 106.727 56.9321L106.28 56.7085C110.109 49.0506 110.866 43.3325 109.595 36.9794L110.085 36.8814ZM105.571 25.4691C106.695 27.2588 108.847 30.6875 110.085 36.8814L109.595 36.9794C108.373 30.8704 106.256 27.5009 105.147 25.735L105.571 25.4691ZM105.433 25.2489C105.477 25.3192 105.523 25.3925 105.571 25.4691L105.147 25.735C105.099 25.6585 105.053 25.5848 105.009 25.5139L105.433 25.2489ZM119.161 27.4858C116.75 25.1356 114.635 24.3587 112.879 24.3839C111.12 24.4093 109.67 25.2413 108.595 26.209L108.26 25.8373C109.391 24.8198 110.952 23.9116 112.872 23.884C114.797 23.8563 117.033 24.7137 119.51 27.1277L119.161 27.4858ZM110.881 52.748C115.944 50.2166 119.518 45.3493 121.067 40.373C122.62 35.3859 122.12 30.3694 119.161 27.4858L119.51 27.1277C122.662 30.1993 123.124 35.4485 121.544 40.5217C119.962 45.6057 116.309 50.5933 111.105 53.1953L110.881 52.748ZM112.522 35.5974C113.543 40.5703 114.312 47.0501 111.215 53.0858L110.77 52.8575C113.784 46.9828 113.049 40.6503 112.032 35.6979L112.522 35.5974ZM108.638 25.8882C109.496 27.226 111.495 30.5937 112.522 35.5974L112.032 35.6979C111.022 30.7762 109.056 27.467 108.217 26.1581L108.638 25.8882Z" fill="#333333"/>
<path d="M35.9263 22.8145C32.4853 19.7558 35.6513 15.3303 37.0072 10.6239M34.6431 0.999724C36.2275 2.46224 37.0479 3.97105 37.377 5.49099" stroke="white" stroke-width="2" stroke-linecap="round"/>
<path fill-rule="evenodd" clip-rule="evenodd" d="M51.6106 48.136C50.3366 48.2296 48.9489 48.8771 48.253 49.4338C47.6332 49.9297 46.7286 49.8292 46.2327 49.2094C45.7368 48.5895 45.8373 47.685 46.4572 47.189C47.558 46.3084 49.4878 45.4095 51.3999 45.269C52.3762 45.1973 53.4537 45.3159 54.4276 45.8444C55.4354 46.3913 56.2014 47.3072 56.6242 48.5756C57.4186 50.9587 56.8717 53.2083 55.7654 55.1313C54.675 57.0269 52.9972 58.6947 51.3206 60.0687C49.6314 61.4528 47.8626 62.6031 46.5205 63.4391C46.1768 63.6531 45.8789 63.8358 45.615 63.9976C45.3392 64.1667 45.1004 64.313 44.8852 64.4488C44.7616 64.5268 44.6635 64.5904 44.5875 64.6414C44.5612 64.7131 44.5357 64.7925 44.5146 64.8756C44.4638 65.0753 44.455 65.229 44.4678 65.3249C44.4734 65.3671 44.4815 65.3853 44.483 65.3884C44.483 65.3884 44.483 65.3885 44.483 65.3885C44.483 65.3888 44.4831 65.3894 44.4879 65.394C44.4955 65.4011 44.6176 65.5135 45.043 65.5742C45.8289 65.6865 46.3749 66.4146 46.2627 67.2004C46.1504 67.9863 45.4223 68.5323 44.6365 68.4201C43.8042 68.3012 43.0728 68.0092 42.519 67.4886C41.9536 66.9572 41.6983 66.3051 41.6183 65.7048C41.4713 64.6023 41.8936 63.5667 42.1168 63.1203C42.2538 62.8463 42.4492 62.669 42.5079 62.6158L42.5094 62.6144C42.6004 62.5319 42.6958 62.4588 42.7761 62.4003C42.9388 62.2818 43.1405 62.1506 43.3513 62.0176C43.5634 61.8837 43.8358 61.7166 44.1367 61.5319C44.4091 61.3647 44.7049 61.1832 45.0006 60.999C46.3086 60.1843 47.9536 59.1111 49.4985 57.8451C51.0559 56.5689 52.4325 55.1599 53.2736 53.6979C54.0988 52.2634 54.3603 50.8746 53.897 49.4847C53.6846 48.8474 53.3694 48.5409 53.0565 48.3711C52.7098 48.183 52.2272 48.0907 51.6106 48.136Z" fill="#EBB033" stroke="#333333" stroke-width="0.5" stroke-linecap="round" stroke-linejoin="round"/>
<path d="M7.46875 44H47.715C47.715 44 46.967 68.3164 33.3413 72.0286C28.6699 72.0286 26.8721 72.0286 21.8413 72.0286C7.92823 68.4103 7.46875 44 7.46875 44Z" fill="white" stroke="#333333" stroke-width="0.5"/>
<path d="M1 69.1543C1 69.1543 9.34479 71.4707 14.8346 72.029C20 72.029 28.6693 72.029 28.6693 72.029C28.6693 72.029 37 72.029 42.5039 72.029C47.9938 71.4707 56.3385 69.1543 56.3385 69.1543V70.5917C56.3385 70.5917 48.1015 74.0718 42.5039 74.9038C37.5 74.9038 28.6693 74.9038 28.6693 74.9038C28.6693 74.9038 20.5 74.9038 14.8346 74.9038C9.237 74.0718 1 70.5917 1 70.5917V69.1543Z" fill="#EBB033" stroke="#333333" stroke-width="0.5"/>
</svg>
